<svg width="1080" height="1080" viewBox="0 0 1080 1080" fill="none" xmlns="http://www.w3.org/2000/svg">
<style>
  #main {
    fill: #0F0F0F
  }
  @media (prefers-color-scheme: dark) { 
    #main {
      fill: #FFF
    }
  }
</style>
<path id="main" fill-rule="evenodd" clip-rule="evenodd" d="M587.312 651.21C585.442 664.555 588.95 677.353 597.064 686.789C605.178 696.225 617.234 701.526 630.578 701.526C658.367 701.526 684.05 678.999 687.943 651.21C697.168 585.364 713.65 467.718 726.324 377.259C736.331 305.827 797.437 252.686 869.566 252.686L813.631 651.932C807.115 698.447 782.387 743.056 744.888 775.947C707.39 808.838 660.192 827.318 613.677 827.318H612.323C515.411 827.318 447.856 748.753 461.434 651.843L492.683 428.791C494.552 415.447 491.044 402.649 482.931 393.213C474.816 383.777 462.761 378.476 449.416 378.476C421.628 378.476 395.945 401.003 392.051 428.791C375.631 545.996 336.218 827.318 336.218 827.318H210.429L266.294 428.563C279.903 331.429 369.677 252.686 466.811 252.686H468.408C514.751 252.686 556.617 271.096 584.795 303.866C612.974 336.635 625.157 381.08 618.664 427.423L587.312 651.21Z" fill="#0F0F0F"/>
<path d="M826.933 827.43C850.49 827.43 869.587 808.333 869.587 784.776C869.587 761.218 850.49 742.122 826.933 742.122C803.376 742.122 784.279 761.218 784.279 784.776C784.279 808.333 803.376 827.43 826.933 827.43Z" fill="#FF3366"/>
</svg>
