<svg width="1080" height="1080" viewBox="0 0 1080 1080" fill="none" xmlns="http://www.w3.org/2000/svg">
<style>
  #main {
    fill: #0F0F0F
  }
  @media (prefers-color-scheme: dark) { 
    #main {
      fill: #FFF
    }
  }
</style>
<path d="M539.978 586.625C552.78 586.625 563.158 576.246 563.158 563.444C563.158 550.642 552.78 540.264 539.978 540.264C527.175 540.264 516.797 550.642 516.797 563.444C516.797 576.246 527.175 586.625 539.978 586.625Z" fill="#FF3366"/>
<path d="M539.978 647.797C552.78 647.797 563.158 637.418 563.158 624.616C563.158 611.814 552.78 601.436 539.978 601.436C527.175 601.436 516.797 611.814 516.797 624.616C516.797 637.418 527.175 647.797 539.978 647.797Z" fill="#FF3366"/>
<path d="M539.978 708.837C552.78 708.837 563.158 698.458 563.158 685.656C563.158 672.854 552.78 662.476 539.978 662.476C527.175 662.476 516.797 672.854 516.797 685.656C516.797 698.458 527.175 708.837 539.978 708.837Z" fill="#FF3366"/>
<path fill-rule="evenodd" clip-rule="evenodd" d="M539.977 723.647C546.125 723.647 552.022 726.081 556.368 730.433C560.716 734.785 563.158 740.675 563.158 746.828V781.852C563.158 794.653 552.779 805.032 539.977 805.032C527.175 805.032 516.797 794.653 516.797 781.852C516.797 765.604 516.797 746.828 516.797 746.828C516.797 734.026 527.175 723.647 539.977 723.647Z" fill="#FF3366"/>
<path id="main" fill-rule="evenodd" clip-rule="evenodd" d="M236.777 829.48C287.961 673.57 339.742 517.85 388.808 361.265C402.025 319.551 433.397 282.262 473.718 265.467C494.535 256.795 516.376 251.242 539.415 251.147C539.819 251.147 540.224 251.147 540.627 251.147C589.514 251.432 637.985 274.77 666.812 313.809C677.377 328.117 685.712 344.175 691.097 361.076L691.215 361.455L843.409 829.511C810.809 824.517 777.951 820.313 744.854 816.92C734.59 815.887 725.907 808.881 722.717 799.071C697.56 721.711 590.84 393.497 590.84 393.497C583.585 370.358 560.216 354.269 533.88 356.766C526.379 357.472 519.265 360.37 512.279 363.562C504.712 367.06 498.941 373.951 494.554 381.338C492.436 384.909 490.673 388.692 489.394 392.643C489.277 393.012 489.148 393.423 489.148 393.423C489.148 393.423 382.421 721.701 357.265 799.071C354.075 808.881 345.392 815.887 335.127 816.93C302.099 820.313 269.309 824.506 236.777 829.48Z" fill="#0F0F0F"/>
</svg>
